<?xml version="1.0" encoding="UTF-8"?>
<svg width="16px" height="16px" viewBox="0 0 16 16" version="1.1" xmlns="http://www.w3.org/2000/svg" xmlns:xlink="http://www.w3.org/1999/xlink">
    <!-- Generator: Sketch 51.2 (57519) - http://www.bohemiancoding.com/sketch -->
    <title>16/Bar/Brand_Dark</title>
    <desc>Created with Sketch.</desc>
    <defs></defs>
    <g id="16/Bar/Brand_Dark" stroke="none" stroke-width="1" fill="none" fill-rule="evenodd">
        <path d="M1,4 L15,4 C15.5522847,4 16,4.44771525 16,5 L16,11 C16,11.5522847 15.5522847,12 15,12 L1,12 C0.44771525,12 6.76353751e-17,11.5522847 0,11 L0,5 C-6.76353751e-17,4.44771525 0.44771525,4 1,4 Z M1,4.5 C0.723857625,4.5 0.5,4.72385763 0.5,5 L0.5,11 C0.5,11.2761424 0.723857625,11.5 1,11.5 L15,11.5 C15.2761424,11.5 15.5,11.2761424 15.5,11 L15.5,5 C15.5,4.72385763 15.2761424,4.5 15,4.5 L1,4.5 Z M1,5 L15,5 L15,11 L1,11 L1,5 Z M2,6.5 C2.27614237,6.5 2.5,6.27614237 2.5,6 C2.5,5.72385763 2.27614237,5.5 2,5.5 C1.72385763,5.5 1.5,5.72385763 1.5,6 C1.5,6.27614237 1.72385763,6.5 2,6.5 Z M14,6.5 C14.2761424,6.5 14.5,6.27614237 14.5,6 C14.5,5.72385763 14.2761424,5.5 14,5.5 C13.7238576,5.5 13.5,5.72385763 13.5,6 C13.5,6.27614237 13.7238576,6.5 14,6.5 Z M2,10.5 C2.27614237,10.5 2.5,10.2761424 2.5,10 C2.5,9.72385763 2.27614237,9.5 2,9.5 C1.72385763,9.5 1.5,9.72385763 1.5,10 C1.5,10.2761424 1.72385763,10.5 2,10.5 Z M14,10.5 C14.2761424,10.5 14.5,10.2761424 14.5,10 C14.5,9.72385763 14.2761424,9.5 14,9.5 C13.7238576,9.5 13.5,9.72385763 13.5,10 C13.5,10.2761424 13.7238576,10.5 14,10.5 Z" id="Rectangle-59" fill="#8899BB"></path>
    </g>
</svg>