<?xml version="1.0" encoding="UTF-8"?>
<svg width="304px" height="41px" viewBox="0 0 304 41" version="1.1" xmlns="http://www.w3.org/2000/svg" xmlns:xlink="http://www.w3.org/1999/xlink">
    <!-- Generator: Sketch 50 (54983) - http://www.bohemiancoding.com/sketch -->
    <title>Logo</title>
    <desc>Created with Sketch.</desc>
    <defs></defs>
    <g id="0_Login" stroke="none" stroke-width="1" fill="none" fill-rule="evenodd">
        <g id="1_用户名/手机号、密码登陆" transform="translate(-808.000000, -981.000000)" fill="#A8BDD4">
            <g id="Down" transform="translate(725.000000, 981.000000)">
                <g id="Logo" transform="translate(83.000000, 0.000000)">
                    <g>
                        <path d="M65.5656175,19.4472342 C65.5656175,19.4472342 70.2881869,21.6415127 71.5053547,27.1868924 C71.7754861,28.4719051 71.8527416,29.9307785 71.6314861,31.5873861 C71.6314861,31.5873861 71.4848584,33.0255 70.5977343,34.8253481 C70.5824934,34.8497405 70.5714569,34.8746519 70.5315153,34.9566519 C69.503019,36.9791456 67.5390482,39.4157911 63.8213255,40.7781329 C63.7509022,40.8040823 63.6815299,40.8284747 63.554873,40.8736266 L15.170873,40.8736266 C6.79154453,40.8736266 -0.000105109489,34.1657152 -0.000105109489,25.8972089 C-0.000105109489,17.6229937 6.79154453,10.9181962 15.170873,10.9181962 C17.6798365,10.9181962 20.0474277,11.5212595 22.1322745,12.5867405 C22.1322745,12.5867405 26.5797081,0.497968354 39.4600993,0.497968354 C42.0744961,0.497968354 47.1580567,0.657890663 52.9966248,6.0433481 C54.7498511,7.66051266 55.7116029,9.16920886 57.1605372,11.9982089 C58.2132088,11.8923354 65.2371504,11.4766266 65.5656175,19.4472342 Z M62.7609938,27.1863734 L59.9914859,21.790981 L62.7609938,20.5723987 L41.8020328,20.5723987 L41.7978453,20.5646139 L35.5103141,14.9143987 L35.5103141,14.9123228 L35.4433141,14.8521203 L35.4412203,14.8526392 L35.4124313,14.8261709 L52.7847984,6.04282911 L52.7382125,5.99975316 L27.6749781,14.8920823 L28.6401969,16.2793354 L32.8036188,16.6748038 L37.2209078,24.0340443 L31.6939313,28.2092975 L41.6146422,35.935462 L43.1514547,36.3978797 L42.2830719,34.1657152 L41.8020328,34.3727911 L40.9676734,34.2892342 L36.0819078,29.4050443 L42.0862594,28.2964873 L52.1786578,30.0221203 L55.7579234,29.5379051 L57.28165,35.1377785 L50.7538609,39.5086899 L49.4860953,40.8731076 L51.9792281,40.8731076 L52.3288844,39.6747658 L59.6193219,36.1181456 L60.3620797,34.9504241 L62.7609938,27.1863734 Z" id="Fill-1"></path>
                        <g id="中文" transform="translate(75.000000, 19.000000)">
                            <polygon id="Fill-37" points="41.2329609 2.40148101 58.2954531 2.40148101 58.2954531 1.00229114 41.2329609 1.00229114"></polygon>
                            <path d="M44.7415625,6.66132911 L58.5974766,6.66132911 L58.5974766,5.23774684 L40.8911562,5.23774684 L40.8911562,6.66132911 L42.9137187,6.66132911 L41.3680078,11.543962 C41.2696016,11.8408228 41.2203984,12.0987595 41.2203984,12.3167342 C41.2203984,12.9312152 41.5229453,13.4128354 42.1222812,13.759519 C42.6190234,14.044443 43.2324922,14.1897595 43.9611172,14.1897595 L55.3940391,14.1897595 C56.2880703,14.1897595 56.9565,14.0761013 57.3857187,13.8384051 C58.0175078,13.5015823 58.3305234,13.0651139 58.3305234,12.529519 C58.3305234,12.2077468 58.2781797,11.8408228 58.1572656,11.4386076 L57.4134609,8.80318987 L57.4134609,8.38488608 L57.2951641,8.38488608 L55.4599922,8.38488608 L53.2898203,8.38488608 L53.7818516,9.81417722 L55.0292031,9.81417722 C55.2830703,9.84375949 55.7416016,9.95897468 56.0425781,10.3502911 L56.4304453,11.6596962 C56.4597578,11.7681646 56.4796484,11.8838987 56.4796484,12.0136456 C56.4796484,12.3348987 56.3121484,12.5476835 55.9813359,12.652519 C55.8598984,12.6883291 55.541125,12.7049367 55.0349609,12.7049367 L44.6190781,12.7049367 L44.0438203,12.7049367 C43.8768437,12.7049367 43.7124844,12.6686076 43.5455078,12.5902405 C43.2649453,12.4625696 43.1220469,12.2440759 43.1220469,11.956557 C43.1220469,11.8179873 43.1466484,11.6659241 43.2021328,11.4998481 L44.7415625,6.66132911 Z" id="Fill-39"></path>
                            <path d="M19.3446367,3.82568608 C18.8970977,3.82568608 18.5730898,3.74109114 18.3694727,3.5828 C18.2145352,3.46187595 18.0182461,3.18629367 17.7821758,2.76176203 C17.3984961,2.06268608 17.1304961,1.62933165 16.9708477,1.45287595 C16.6395117,1.09944557 16.1574258,0.925065823 15.5460508,0.925065823 L12.2086133,0.925065823 C11.641207,0.925065823 11.2009961,1.09529367 10.8743711,1.43471139 C10.7073945,1.59248354 10.4346836,2.04400253 10.0264023,2.78615443 C9.75683203,3.27400253 9.53280078,3.57138228 9.35640234,3.66843291 C9.19361328,3.76081266 8.94079297,3.81011646 8.58485547,3.82568608 L8.58485547,5.19736962 C9.27945703,5.18958481 9.80551172,5.1122557 10.1781992,4.95863544 C10.5676367,4.79515443 10.9942383,4.30159747 11.4375898,3.49768608 C11.7349023,2.95015443 11.9432305,2.64135696 12.0536758,2.54742025 C12.2012852,2.4389519 12.4049023,2.38601519 12.6488242,2.38601519 L15.1597539,2.38601519 C15.423043,2.38601519 15.6318945,2.4389519 15.7910195,2.55624304 C15.8632539,2.60969873 16.0229023,2.84687595 16.2678711,3.26777468 C16.7300664,4.0338 17.022668,4.48531899 17.1530039,4.60676203 C17.5659961,4.99496456 18.2098242,5.19736962 19.0886758,5.19736962 L19.1483477,5.19736962 L19.3446367,5.19736962 L20.0989102,5.19736962 L20.0989102,3.83398987 L19.3446367,3.83398987 L19.3446367,3.82568608 Z" id="Fill-40"></path>
                            <path d="M18.4889211,7.4899962 C18.0256789,7.11892025 17.4106398,6.9367557 16.6516555,6.9367557 L14.8185773,6.9367557 L14.8185773,5.4399962 L12.987593,5.4399962 L12.987593,6.9367557 L9.21831953,6.9367557 L9.21831953,8.38524937 L16.5584836,8.38524937 C16.7746633,8.38524937 16.961007,8.45116076 17.1300773,8.59076835 C17.3221789,8.74854051 17.4106398,8.98779367 17.4106398,9.31112278 L17.4106398,11.4384519 C17.4106398,11.7078063 17.3336945,11.9200722 17.1771867,12.0861481 C17.0060227,12.255857 16.7867023,12.3466797 16.530218,12.3466797 L13.1765539,12.3466797 C12.677718,12.3466797 12.1260148,12.3653633 12.0045773,12.0010342 L11.7104055,10.7347051 L9.87942109,10.7347051 L10.2552492,12.3959835 C10.3855852,12.7499329 10.8823273,13.7946544 12.4170461,13.7946544 L16.6888195,13.7946544 C17.4839211,13.7946544 18.113093,13.5865405 18.5731945,13.1625278 C18.9767648,12.7898949 19.180382,12.3108696 19.180382,11.7145532 L19.180382,8.88451519 C19.180382,8.32400886 18.9443117,7.8548443 18.4889211,7.4899962" id="Fill-41"></path>
                            <path d="M37.3531375,1.49024304 L37.3531375,1.49647089 L37.5326766,0.911572152 L35.5619344,0.911572152 L35.5540828,0.917281013 L35.5540828,0.925065823 L35.4682391,1.21050886 C35.2918406,1.53798987 34.7877703,2.02531899 33.3017312,2.02531899 L33.3017312,2.73736962 L27.9244578,2.73736962 L27.9244578,2.02531899 C26.4509812,2.02531899 25.9416766,1.54992658 25.7668484,1.22244557 L25.6673953,0.911572152 L23.6966531,0.911572152 L23.8730516,1.49024304 C24.175075,2.36162278 25.4957078,2.73736962 25.4957078,2.73736962 L21.7384734,2.73736962 L21.7384734,4.17911646 L29.7313641,4.17911646 L29.7313641,6.53687595 L22.0771375,6.53687595 L22.0771375,7.98433165 L29.7313641,7.98433165 L29.7313641,10.471838 L21.7384734,10.471838 L21.7384734,11.9141038 L29.7313641,11.9141038 L29.7313641,14.1898633 L31.5147156,14.1898633 L31.5147156,11.9141038 L39.2008719,11.9141038 L39.2008719,10.471838 L31.5147156,10.471838 L31.5147156,7.98433165 L38.8376062,7.98433165 L38.8376062,6.53687595 L31.5147156,6.53687595 L31.5147156,4.17911646 L39.2008719,4.17911646 L39.2008719,2.73736962 L35.7247234,2.73736962 C35.7247234,2.73736962 37.0464031,2.36162278 37.3531375,1.49024304" id="Fill-42"></path>
                            <path d="M7.08065312,2.32498228 L6.84929375,2.32498228 C6.84929375,2.32498228 7.08065312,2.14126076 7.24030156,1.77537468 L7.49312187,0.925273418 L6.0808875,0.925273418 L5.91077031,1.50134937 L5.90605938,1.49045063 C5.90605938,1.49045063 5.81079375,2.03175443 5.147075,2.03175443 L5.147075,2.32498228 L3.44956719,2.32498228 L3.44956719,2.03175443 C2.8648875,2.03175443 2.71937188,1.61708354 2.69477031,1.50757722 L2.69477031,1.50134937 L2.68587188,1.49045063 L2.55239531,0.925273418 L1.11503594,0.925273418 L1.24537188,1.49045063 C1.38146563,2.05614684 1.74787188,2.32498228 1.74787188,2.32498228 L1.44637188,2.32498228 L0.906707813,2.32498228 L0.83395,2.32498228 L0.83395,3.77347595 L3.47364531,3.77347595 L3.47364531,5.58577975 L1.37309063,5.58577975 L1.37309063,7.02804557 L3.47364531,7.02804557 L3.47364531,8.99396962 L0.83395,8.99396962 L0.83395,10.4544 L3.36791094,10.4544 C3.18104375,11.1171468 2.90362188,11.6350962 2.54768438,11.9931975 C2.13992656,12.4021595 1.32336406,12.668919 0.89466875,12.8017797 L0.89466875,14.2710329 C2.78061406,13.8314506 3.84790313,13.077362 4.31899688,12.4322608 C4.73879375,11.8774633 5.01202813,11.2147165 5.14236406,10.4544 L7.67266094,10.4544 L7.67266094,8.99396962 L5.20360625,8.99396962 L5.20360625,7.02804557 L7.52819219,7.02804557 L7.52819219,5.58577975 L5.20360625,5.58577975 L5.20360625,3.77347595 L7.67266094,3.77347595 L7.67266094,2.32498228 L7.49312187,2.32498228 L7.08065312,2.32498228 Z" id="Fill-43"></path>
                        </g>
                        <g id="英文" transform="translate(76.000000, 35.000000)">
                            <path d="M2.98907422,4.13979367 L1.98512109,1.21062911 L0.981167969,4.13979367 L2.98907422,4.13979367 Z M0.871246094,4.45222405 L0.584925781,5.28779367 C0.560847656,5.35578101 0.536246094,5.42792025 0.512167969,5.50576835 C0.487566406,5.58309747 0.462964844,5.65367975 0.438886719,5.71647722 C0.414285156,5.77927468 0.386019531,5.83169241 0.354613281,5.87269241 C0.322683594,5.91369241 0.284996094,5.9344519 0.241027344,5.9344519 C0.172457031,5.9344519 0.123253906,5.91005949 0.0944648437,5.86179367 C0.0646289062,5.81352785 0.0750976562,5.71907215 0.123253906,5.57790759 L1.67733984,1.08762911 C1.72601953,0.937122785 1.82599609,0.862388608 1.97779297,0.862388608 C2.13901172,0.862388608 2.24422266,0.937122785 2.29290234,1.08762911 L3.84698828,5.58569241 C3.86112109,5.62409747 3.87316016,5.66354051 3.88310547,5.70194557 C3.89357422,5.74086962 3.89514453,5.77823671 3.89095703,5.81456582 C3.88572266,5.85089494 3.87106641,5.87995823 3.84698828,5.9017557 C3.82238672,5.92355316 3.78312891,5.9344519 3.72921484,5.9344519 C3.62714453,5.9344519 3.55857422,5.85919873 3.52402734,5.70869241 L3.09166797,4.45222405 L0.871246094,4.45222405 Z" id="Fill-44"></path>
                            <path d="M5.29036719,5.69473165 C5.29036719,5.84990886 5.23435938,5.92723797 5.12182031,5.92723797 C5.00928125,5.92723797 4.95327344,5.84990886 4.95327344,5.69473165 L4.95327344,1.10169367 C4.95327344,0.937174684 5.0071875,0.855174684 5.11449219,0.855174684 C5.17782813,0.855174684 5.22703125,0.874377215 5.26105469,0.913301266 C5.29560156,0.951706329 5.33171875,0.995301266 5.37097656,1.04408608 L8.20748438,5.30237722 L8.20748438,1.08768101 C8.20748438,1.00516203 8.21847656,0.945997468 8.24046094,0.909149367 C8.26244531,0.873339241 8.30536719,0.855174684 8.36870313,0.855174684 C8.43727344,0.855174684 8.48385938,0.871782278 8.5079375,0.905516456 C8.53201563,0.93976962 8.54457813,1.00049114 8.54457813,1.08768101 L8.54457813,5.67293418 C8.54457813,5.84264304 8.49066406,5.92723797 8.38335938,5.92723797 C8.2901875,5.92723797 8.20225,5.86392152 8.11954688,5.73832658 L5.29036719,1.51636456 L5.29036719,5.69473165 Z" id="Fill-45"></path>
                            <path d="M11.3589969,1.26917089 L11.3589969,5.69457595 C11.3589969,5.7869557 11.3500984,5.8481962 11.3333484,5.87985443 C11.316075,5.91099367 11.2684422,5.92760127 11.19045,5.92760127 C11.1171687,5.92760127 11.0705828,5.91099367 11.0512156,5.87985443 C11.031325,5.8481962 11.0213797,5.7869557 11.0213797,5.69457595 L11.0213797,1.26917089 L9.69498906,1.26917089 C9.60705156,1.26917089 9.54737969,1.25723418 9.51597344,1.23284177 C9.48404375,1.20896835 9.46834062,1.16744937 9.46834062,1.10932278 C9.46834062,1.00293038 9.54371562,0.949474684 9.69498906,0.949474684 L12.6853875,0.949474684 C12.7639031,0.949474684 12.8209578,0.965044304 12.8575984,0.996702532 C12.8947625,1.02836076 12.9130828,1.06832278 12.9130828,1.11658861 C12.9130828,1.17471519 12.8884812,1.2151962 12.8392781,1.23699367 C12.7905984,1.25827215 12.7393016,1.26917089 12.6853875,1.26917089 L11.3589969,1.26917089 Z" id="Fill-46"></path>
                            <path d="M14.121857,5.54925949 L16.0784664,5.54925949 C16.1470367,5.54925949 16.2192711,5.54666456 16.2946461,5.54199367 C16.3705445,5.53732278 16.4391148,5.53836076 16.4998336,5.54562658 C16.5610758,5.55289241 16.6113258,5.56742405 16.6500602,5.58922152 C16.689318,5.61101899 16.7086852,5.64838608 16.7086852,5.70184177 C16.7086852,5.76982911 16.6903648,5.81238608 16.6542477,5.82899367 C16.617607,5.84612025 16.5574117,5.85442405 16.4741852,5.85442405 L14.0339195,5.85442405 C13.9407477,5.85442405 13.8763648,5.84041139 13.8397242,5.81082911 C13.8030836,5.78176582 13.7842398,5.71118354 13.7842398,5.60012025 L13.7842398,1.20377848 C13.7842398,1.10672785 13.8004664,1.04029747 13.8323961,1.00396835 C13.8643258,0.967639241 13.9313258,0.949474684 14.0339195,0.949474684 L16.4009039,0.949474684 C16.4794195,0.949474684 16.5375211,0.960373418 16.5767789,0.982170886 C16.6160367,1.00396835 16.6359273,1.04393038 16.6359273,1.10205696 C16.6359273,1.16018354 16.6160367,1.20014557 16.5767789,1.22194304 C16.5375211,1.24374051 16.4794195,1.25463924 16.4009039,1.25463924 L14.121857,1.25463924 L14.121857,3.16555063 L16.3281461,3.16555063 C16.4160836,3.16555063 16.4768023,3.17593038 16.5108258,3.19513291 C16.5453727,3.21433544 16.5621227,3.25793038 16.5621227,3.32591772 C16.5621227,3.38352532 16.5453727,3.42244937 16.5108258,3.4416519 C16.4768023,3.46137342 16.4160836,3.47071519 16.3281461,3.47071519 L14.121857,3.47071519 L14.121857,5.54925949 Z" id="Fill-47"></path>
                            <path d="M19.8530789,5.54925949 C19.9949305,5.54925949 20.0655945,5.60012025 20.0655945,5.70184177 C20.0655945,5.80356329 19.9949305,5.85442405 19.8530789,5.85442405 L18.043032,5.85442405 C17.8525008,5.85442405 17.7567117,5.77657595 17.7567117,5.62191772 L17.7567117,1.06572785 C17.7567117,0.925601266 17.813243,0.855018987 17.9252586,0.855018987 C18.0377977,0.855018987 18.0943289,0.925601266 18.0943289,1.06572785 L18.0943289,5.54925949 L19.8530789,5.54925949 Z" id="Fill-48"></path>
                            <path d="M23.0192477,5.67293418 C23.3024273,5.67293418 23.5562945,5.61844051 23.7813727,5.50945316 C24.0059273,5.40046582 24.1964586,5.24788354 24.3529664,5.05170633 C24.5094742,4.85552911 24.6277711,4.6183519 24.7083805,4.3396557 C24.7889898,4.06095949 24.8292945,3.75216203 24.8292945,3.41326329 C24.8292945,3.11744051 24.7926539,2.83147848 24.7193727,2.55537722 C24.6460914,2.27927595 24.5351227,2.03327595 24.385943,1.8178962 C24.2367633,1.60199747 24.0488492,1.42917468 23.8216773,1.29787089 C23.5945055,1.16708608 23.3270289,1.10169367 23.0192477,1.10169367 C22.710943,1.10169367 22.4434664,1.1660481 22.216818,1.29423797 C21.9891227,1.42346582 21.8012086,1.59525063 21.6525523,1.81063038 C21.5033727,2.02652911 21.3908336,2.27045316 21.3149352,2.54447848 C21.2395602,2.8185038 21.2013492,3.10031392 21.2013492,3.39146582 C21.2013492,3.68676962 21.2379898,3.97169367 21.3112711,4.24468101 C21.3845523,4.51870633 21.4960445,4.76055443 21.6447008,4.97126329 C21.7938805,5.18249114 21.9833648,5.3522 22.2126305,5.48038987 C22.4424195,5.60857975 22.710943,5.67293418 23.0192477,5.67293418 M23.0192477,0.781997468 C23.3757086,0.781997468 23.6871539,0.855174684 23.9535836,1.00049114 C24.2194898,1.14528861 24.4435211,1.33783291 24.624107,1.57760506 C24.804693,1.8178962 24.9402633,2.09503544 25.030818,2.41006076 C25.1213727,2.72508608 25.1669117,3.0520481 25.1669117,3.39146582 C25.1669117,3.73555443 25.1224195,4.06407342 25.034482,4.37961772 C24.9465445,4.69412405 24.8135914,4.97126329 24.6350992,5.21103544 C24.456607,5.45132658 24.2330992,5.64231392 23.9645758,5.78555443 C23.6955289,5.92827595 23.3804195,5.9998962 23.0192477,5.9998962 C22.6575523,5.9998962 22.342443,5.92827595 22.0733961,5.78555443 C21.8048727,5.64231392 21.5813648,5.44976962 21.4028727,5.20792152 C21.2243805,4.96555443 21.0914273,4.68841519 21.0034898,4.37598481 C20.9155523,4.06303544 20.8715836,3.73555443 20.8715836,3.39146582 C20.8715836,3.0520481 20.9165992,2.72508608 21.0071539,2.41006076 C21.0977086,2.09503544 21.2317086,1.81633924 21.4102008,1.57449114 C21.588693,1.33212405 21.8122008,1.13957975 22.0807242,0.996339241 C22.3497711,0.854136709 22.6622633,0.781997468 23.0192477,0.781997468" id="Fill-49"></path>
                            <path d="M26.4047367,3.59444177 L27.5484477,3.59444177 C27.964057,3.59444177 28.2666039,3.49998608 28.4571352,3.31107468 C28.6476664,3.12216329 28.742932,2.82893544 28.742932,2.43191013 C28.742932,1.65187215 28.3445961,1.26211266 27.5484477,1.26211266 L26.4047367,1.26211266 L26.4047367,3.59444177 Z M26.067643,1.21073291 C26.067643,1.10434051 26.0838695,1.03427722 26.1152758,1.00054304 C26.1472055,0.966808861 26.2147289,0.949163291 26.3167992,0.949163291 L27.5484477,0.949163291 C28.0514711,0.949163291 28.4325336,1.07423924 28.6916352,1.32387215 C28.9502133,1.57298608 29.0800258,1.93991013 29.0800258,2.4246443 C29.0800258,2.89432785 28.9465492,3.25813797 28.680643,3.51451772 C28.4142133,3.77141646 28.0368148,3.89960633 27.5484477,3.89960633 L26.4047367,3.89960633 L26.4047367,5.69478354 C26.4047367,5.84996076 26.3508227,5.92728987 26.243518,5.92728987 C26.1754711,5.92728987 26.1288852,5.90756835 26.104807,5.86916329 C26.0802055,5.83075823 26.067643,5.77211266 26.067643,5.69478354 L26.067643,1.21073291 Z" id="Fill-50"></path>
                            <path d="M30.4654602,5.54925949 L32.4220695,5.54925949 C32.4906398,5.54925949 32.5628742,5.54666456 32.6382492,5.54199367 C32.7141477,5.53732278 32.782718,5.53836076 32.8434367,5.54562658 C32.9046789,5.55289241 32.9549289,5.56742405 32.9936633,5.58922152 C33.0329211,5.61101899 33.0522883,5.64838608 33.0522883,5.70184177 C33.0522883,5.76982911 33.033968,5.81238608 32.9978508,5.82899367 C32.9612102,5.84612025 32.9010148,5.85442405 32.8177883,5.85442405 L30.3775227,5.85442405 C30.2843508,5.85442405 30.219968,5.84041139 30.1833273,5.81082911 C30.1466867,5.78176582 30.127843,5.71118354 30.127843,5.60012025 L30.127843,1.20377848 C30.127843,1.10672785 30.1440695,1.04029747 30.1759992,1.00396835 C30.2079289,0.967639241 30.2749289,0.949474684 30.3775227,0.949474684 L32.744507,0.949474684 C32.8230227,0.949474684 32.8811242,0.960373418 32.920382,0.982170886 C32.9596398,1.00396835 32.9795305,1.04393038 32.9795305,1.10205696 C32.9795305,1.16018354 32.9596398,1.20014557 32.920382,1.22194304 C32.8811242,1.24374051 32.8230227,1.25463924 32.744507,1.25463924 L30.4654602,1.25463924 L30.4654602,3.16555063 L32.6717492,3.16555063 C32.7596867,3.16555063 32.8204055,3.17593038 32.8544289,3.19513291 C32.8889758,3.21433544 32.9057258,3.25793038 32.9057258,3.32591772 C32.9057258,3.38352532 32.8889758,3.42244937 32.8544289,3.4416519 C32.8204055,3.46137342 32.7596867,3.47071519 32.6717492,3.47071519 L30.4654602,3.47071519 L30.4654602,5.54925949 Z" id="Fill-51"></path>
                            <path d="M38.1677906,5.9998443 C37.8013844,5.9998443 37.4705719,5.94067975 37.1753531,5.82183165 C36.8790875,5.70350253 36.6278375,5.53119873 36.4200328,5.30595823 C36.2122281,5.08071772 36.0520562,4.80565443 35.9400406,4.48076835 C35.8275016,4.15640127 35.7714937,3.79051519 35.7714937,3.38362911 C35.7714937,3.0644519 35.8248844,2.74786962 35.9321891,2.43543924 C36.0400172,2.12300886 36.1902437,1.84431266 36.3833922,1.59935063 C36.5765406,1.35542658 36.8105172,1.15769241 37.0874156,1.00770506 C37.3627437,0.857717722 37.6694781,0.78194557 38.0065719,0.78194557 C38.5687437,0.78194557 39.0571109,0.9693 39.4721969,1.34141392 C39.5554234,1.4244519 39.596775,1.50178101 39.596775,1.57443924 C39.596775,1.6663 39.5433844,1.71248987 39.4360797,1.71248987 C39.3968219,1.71248987 39.3324391,1.68135063 39.2418844,1.61803418 C39.1513297,1.55523671 39.0424547,1.48517342 38.9157828,1.40732532 C38.7885875,1.3299962 38.6456891,1.25941392 38.4865641,1.19661646 C38.3279625,1.13381899 38.1604625,1.10164177 37.9845875,1.10164177 C37.7008844,1.10164177 37.4449234,1.17118608 37.2151344,1.30923671 C36.9853453,1.44728734 36.7885328,1.6253 36.6252203,1.84327468 C36.4613844,2.06124937 36.3341891,2.30621139 36.2441578,2.57712278 C36.1536031,2.84855316 36.1080641,3.11738861 36.1080641,3.38362911 C36.1080641,3.74224937 36.1572672,4.06350253 36.25515,4.34635063 C36.3525094,4.62971772 36.4906969,4.87104684 36.6691891,5.06981899 C36.8476812,5.26859114 37.0638609,5.42117342 37.3177281,5.52756582 C37.5715953,5.63395823 37.8552984,5.68689494 38.1677906,5.68689494 C38.5781656,5.68689494 38.93515,5.54209747 39.2382203,5.25146456 C39.3308687,5.16427468 39.4062437,5.12067975 39.4653922,5.12067975 C39.5093609,5.12067975 39.5460016,5.1388443 39.5747906,5.17517342 C39.6046266,5.21098354 39.6187594,5.24938861 39.6187594,5.28779367 C39.6187594,5.33657848 39.5784547,5.40041392 39.4983687,5.48033797 C39.4177594,5.56026203 39.3104547,5.6391481 39.1759312,5.71647722 C39.0414078,5.79432532 38.8859469,5.86023671 38.7100719,5.91628734 C38.5341969,5.97181899 38.3536109,5.9998443 38.1677906,5.9998443" id="Fill-52"></path>
                            <path d="M42.6900812,5.54925949 C42.8319328,5.54925949 42.9025969,5.60012025 42.9025969,5.70184177 C42.9025969,5.80356329 42.8319328,5.85442405 42.6900812,5.85442405 L40.8800344,5.85442405 C40.6895031,5.85442405 40.5937141,5.77657595 40.5937141,5.62191772 L40.5937141,1.06572785 C40.5937141,0.925601266 40.6502453,0.855018987 40.7622609,0.855018987 C40.8748,0.855018987 40.9313312,0.925601266 40.9313312,1.06572785 L40.9313312,5.54925949 L42.6900812,5.54925949 Z" id="Fill-53"></path>
                            <path d="M45.85625,5.67293418 C46.1394297,5.67293418 46.3932969,5.61844051 46.618375,5.50945316 C46.8429297,5.40046582 47.0334609,5.24788354 47.1899687,5.05170633 C47.3464766,4.85552911 47.4647734,4.6183519 47.5453828,4.3396557 C47.6259922,4.06095949 47.6662969,3.75216203 47.6662969,3.41326329 C47.6662969,3.11744051 47.6296562,2.83147848 47.556375,2.55537722 C47.4830937,2.27927595 47.372125,2.03327595 47.2229453,1.8178962 C47.0737656,1.60199747 46.8858516,1.42917468 46.6586797,1.29787089 C46.4315078,1.16708608 46.1640312,1.10169367 45.85625,1.10169367 C45.5479453,1.10169367 45.2804687,1.1660481 45.0538203,1.29423797 C44.826125,1.42346582 44.6382109,1.59525063 44.4895547,1.81063038 C44.340375,2.02652911 44.2278359,2.27045316 44.1519375,2.54447848 C44.0765625,2.8185038 44.0383516,3.10031392 44.0383516,3.39146582 C44.0383516,3.68676962 44.0749922,3.97169367 44.1482734,4.24468101 C44.2215547,4.51870633 44.3330469,4.76055443 44.4817031,4.97126329 C44.6308828,5.18249114 44.8203672,5.3522 45.0496328,5.48038987 C45.2794219,5.60857975 45.5479453,5.67293418 45.85625,5.67293418 M45.85625,0.781997468 C46.2127109,0.781997468 46.5241562,0.855174684 46.7905859,1.00049114 C47.0564922,1.14528861 47.2805234,1.33783291 47.4611094,1.57760506 C47.6416953,1.8178962 47.7772656,2.09503544 47.8678203,2.41006076 C47.958375,2.72508608 48.0039141,3.0520481 48.0039141,3.39146582 C48.0039141,3.73555443 47.9594219,4.06407342 47.8714844,4.37961772 C47.7835469,4.69412405 47.6505937,4.97126329 47.4721016,5.21103544 C47.2936094,5.45132658 47.0701016,5.64231392 46.8015781,5.78555443 C46.5325312,5.92827595 46.2174219,5.9998962 45.85625,5.9998962 C45.4945547,5.9998962 45.1794453,5.92827595 44.9103984,5.78555443 C44.641875,5.64231392 44.4183672,5.44976962 44.239875,5.20792152 C44.0613828,4.96555443 43.9284297,4.68841519 43.8404922,4.37598481 C43.7525547,4.06303544 43.7085859,3.73555443 43.7085859,3.39146582 C43.7085859,3.0520481 43.7536016,2.72508608 43.8441562,2.41006076 C43.9347109,2.09503544 44.0687109,1.81633924 44.2472031,1.57449114 C44.4256953,1.33212405 44.6492031,1.13957975 44.9177266,0.996339241 C45.1867734,0.854136709 45.4992656,0.781997468 45.85625,0.781997468" id="Fill-54"></path>
                            <path d="M48.9785023,1.08773291 C48.9785023,0.932555696 49.0345102,0.855226582 49.1470492,0.855226582 C49.2595883,0.855226582 49.3161195,0.932555696 49.3161195,1.08773291 L49.3161195,3.7615557 C49.3161195,4.03817595 49.3344398,4.29092278 49.370557,4.52083418 C49.4071977,4.75126456 49.4804789,4.94847975 49.5909242,5.11351772 C49.7008461,5.27803671 49.8557836,5.40518861 50.0562602,5.49497342 C50.2562133,5.58475823 50.5200258,5.62939114 50.8471742,5.62939114 C51.3360648,5.62939114 51.7087523,5.51261899 51.9652367,5.28063165 C52.2217211,5.04812532 52.3499633,4.71856835 52.3499633,4.29247975 L52.3499633,1.08773291 C52.3499633,0.932555696 52.4059711,0.855226582 52.5185102,0.855226582 C52.6310492,0.855226582 52.687057,0.932555696 52.687057,1.08773291 L52.687057,4.30649241 C52.687057,4.55404937 52.6430883,4.77877089 52.5551508,4.98273291 C52.4672133,5.18565696 52.3426352,5.36003671 52.1814164,5.50587215 C52.0207211,5.65118861 51.8260023,5.76380886 51.5988305,5.84373291 C51.3716586,5.92313797 51.1188383,5.96361899 50.8403695,5.96361899 C50.5613773,5.96361899 50.3075102,5.9221 50.0782445,5.8401 C49.8484555,5.75758101 49.651643,5.6434038 49.4883305,5.49860633 C49.3239711,5.35328987 49.1983461,5.17891013 49.1104086,4.9749481 C49.0224711,4.77202405 48.9785023,4.54885949 48.9785023,4.30649241 L48.9785023,1.08773291 Z" id="Fill-55"></path>
                            <path d="M54.0058578,5.54220127 L55.2888031,5.54220127 C55.8064828,5.54220127 56.2111,5.35432785 56.5021312,4.9791 C56.7921156,4.60335316 56.9381547,4.06672025 56.9381547,3.36920127 C56.9381547,2.67168228 56.7853109,2.1459481 56.4796234,1.79199873 C56.1744594,1.43908734 55.7164516,1.26211266 55.1056,1.26211266 L54.0058578,1.26211266 L54.0058578,5.54220127 Z M55.2521625,0.949163291 C55.5992016,0.949163291 55.8991312,1.01351772 56.1535219,1.14170759 C56.4073891,1.27093544 56.6172875,1.44583418 56.7842641,1.66899873 C56.9496703,1.8916443 57.0732016,2.15113797 57.1543344,2.44644177 C57.2344203,2.74174557 57.274725,3.05677089 57.274725,3.39099873 C57.274725,3.7205557 57.2359906,4.03298608 57.157475,4.32828987 C57.0794828,4.62359367 56.9585687,4.88568228 56.7947328,5.11351772 C56.6314203,5.34083418 56.4246625,5.52144177 56.1755062,5.65482152 C55.92635,5.78820127 55.6306078,5.85463165 55.2888031,5.85463165 L53.9179203,5.85463165 C53.8545844,5.85463165 53.8053813,5.85099873 53.7718813,5.84373291 C53.7373344,5.8359481 53.7127328,5.82453038 53.6980766,5.8074038 C53.6839438,5.7907962 53.6750453,5.76484684 53.6724281,5.73111266 C53.6698109,5.69737848 53.6687641,5.65378354 53.6687641,5.59980886 L53.6687641,1.20398608 C53.6687641,1.15053038 53.6698109,1.10693544 53.6724281,1.07320127 C53.6750453,1.0389481 53.6839438,1.01351772 53.6980766,0.996391139 C53.7127328,0.979783544 53.7373344,0.967846835 53.7718813,0.960581013 C53.8053813,0.952796203 53.8545844,0.949163291 53.9179203,0.949163291 L55.2521625,0.949163291 Z" id="Fill-56"></path>
                        </g>
                    </g>
                    <path d="M192.79683,40.7544999 L198.98382,37.0660962 L211.079633,37.0660962 C215.535839,37.0660962 219.161232,33.4407028 219.161232,28.9848038 C219.161232,24.5282901 215.535839,20.903204 211.079633,20.903204 C210.903511,20.903204 210.714481,20.9108882 210.483955,20.9277934 L208.402159,21.0805548 L208.506971,18.995992 C208.517114,18.7968182 208.522339,18.5961075 208.522339,18.3944748 C208.522339,11.9397684 203.270975,6.68840366 196.816268,6.68840366 C192.01243,6.68840366 187.748943,9.56996902 185.954534,14.0298638 L185.42617,15.3435502 L184.020581,15.1723468 C183.550925,15.1148692 183.111697,15.0872062 182.678002,15.0872062 C176.618263,15.0872062 171.688404,20.017065 171.688404,26.0768049 C171.688404,32.1362374 176.618263,37.0660962 182.678002,37.0660962 C185.01645,37.0660962 187.839616,36.7464346 189.75359,36.2706305 C197.008065,34.4670011 201.199014,30.375332 201.199014,27.6413028 C201.199014,25.426109 193.504697,20.8156044 190.481742,20.8156044 C186.529925,20.8156044 185.511926,26.0248599 184.913482,29.9164331 C184.374361,27.1024885 183.989845,19.6181027 188.014508,17.3826227 C193.459206,14.3587464 205.749889,21.1749164 205.749889,26.6835473 C205.749889,31.2338079 195.151876,40.7544999 182.678002,40.7544999 C174.584415,40.7544999 168,34.1700846 168,26.0768049 C168,17.9832178 174.584415,11.3988025 182.678002,11.3988025 C182.816932,11.3988025 182.957399,11.4009541 183.099095,11.4052572 C185.712636,6.25747517 190.959083,3 196.816268,3 C204.925224,3 211.589554,9.30133029 212.169556,17.2645938 C218.150303,17.8166249 222.849636,22.8623611 222.849636,28.9848038 C222.849636,35.4745501 217.569686,40.7544999 211.079633,40.7544999 L192.79683,40.7544999 Z M228.315761,15.4096899 L239.491423,15.4096899 L239.491423,16.5084208 L228.315761,16.5084208 L228.315761,15.4096899 Z M226.80893,19.7889173 L240.888381,19.7889173 L240.888381,20.9190405 L233.354227,20.9190405 C231.91018,23.8856139 230.638792,25.9418103 229.571453,27.1033258 C232.396761,26.9463642 235.206373,26.6795296 238.015985,26.3028218 C237.450923,25.2982679 236.823077,24.2623216 236.132446,23.1949831 L237.042823,22.6299215 C238.48687,24.7959909 239.601297,26.6952257 240.386104,28.2962336 L239.38155,29.0025606 C239.130412,28.4531951 238.863577,27.9038297 238.56535,27.3387681 C235.379031,27.7468681 231.91018,28.0607913 228.143103,28.3119297 L227.844876,27.1661104 C227.970445,27.1347181 228.048926,27.0876296 228.111711,27.0562373 C229.116265,26.3028218 230.450438,24.2623216 232.098534,20.9190405 L226.80893,20.9190405 L226.80893,19.7889173 Z M251.702377,21.7823291 L250.007192,21.7823291 L250.007192,27.2131989 C250.870481,26.9777565 251.718073,26.6795296 252.565665,26.3028218 L252.816804,27.2916796 C251.749465,27.7468681 250.415292,28.1863605 248.798588,28.6101567 L248.563146,27.7154758 C248.782892,27.6212989 248.908461,27.4643373 248.908461,27.2602873 L248.908461,15.1271591 L255.48515,15.1271591 L255.48515,21.7823291 L252.722627,21.7823291 C252.895285,22.7554907 253.193512,23.6344754 253.633004,24.4349793 C254.355027,24.0268793 255.045658,23.4147292 255.704896,22.582833 L256.395527,23.2734638 C255.736289,24.1367524 254.982873,24.7959909 254.135281,25.2511794 C254.825912,26.2243411 255.704896,27.0562373 256.787931,27.7468681 L256.160085,28.7357259 C253.695789,27.0562373 252.204654,24.7332063 251.702377,21.7823291 Z M247.495807,15.3469053 L247.495807,27.8253489 L246.397076,27.8253489 L246.397076,26.6324411 L244.026957,26.6324411 L244.026957,28.1863605 L242.943922,28.1863605 L242.943922,15.3469053 L247.495807,15.3469053 Z M244.026957,25.5651025 L246.397076,25.5651025 L246.397076,23.1949831 L244.026957,23.1949831 L244.026957,25.5651025 Z M244.026957,22.174733 L246.397076,22.174733 L246.397076,19.8046135 L244.026957,19.8046135 L244.026957,22.174733 Z M244.026957,18.7686672 L246.397076,18.7686672 L246.397076,16.4142439 L244.026957,16.4142439 L244.026957,18.7686672 Z M250.007192,19.0041095 L250.007192,20.7777751 L254.386419,20.7777751 L254.386419,19.0041095 L250.007192,19.0041095 Z M254.386419,17.9995556 L254.386419,16.1631054 L250.007192,16.1631054 L250.007192,17.9995556 L254.386419,17.9995556 Z M258.388283,18.6274018 L264.494088,18.6274018 C264.619657,17.7170248 264.682442,16.7752555 264.698138,15.7863977 L264.698138,14.5150091 L265.859653,14.5150091 L265.859653,15.5352592 C265.859653,16.6339901 265.781173,17.6542402 265.655603,18.6274018 L272.169508,18.6274018 L272.169508,19.7261327 L265.985223,19.7261327 C267.083954,23.2734638 269.250023,26.0045949 272.467735,27.9195259 L271.761408,28.8299029 C268.606481,26.8835796 266.440411,24.1524485 265.2632,20.6051174 C264.290038,24.4192832 262.123968,27.1975027 258.780687,28.939776 L258.07436,27.9980066 C261.417641,26.3499103 263.489534,23.5873869 264.305734,19.7261327 L258.388283,19.7261327 L258.388283,18.6274018 Z M276.155676,22.378783 C275.559222,23.0066292 274.884287,23.6344754 274.162264,24.2623216 L273.816949,23.08511 C275.920233,21.2800521 277.332887,19.5220827 278.039214,17.7955056 L274.17796,17.7955056 L274.17796,16.7124709 L276.62656,16.7124709 C276.359726,16.0061439 276.045803,15.3312092 275.684791,14.6719706 L276.767826,14.3580475 C277.144534,15.1428553 277.442761,15.8805746 277.662507,16.5398131 L277.207318,16.7124709 L279.169338,16.7124709 L279.169338,17.6699363 C278.761238,18.8157557 278.133391,19.9458789 277.285799,21.0603059 C278.149088,21.5939752 278.933895,22.2061253 279.624526,22.88106 L278.980984,23.8542216 C278.415922,23.2263754 277.835164,22.6927061 277.270103,22.2532137 L277.270103,28.8926875 L276.155676,28.8926875 L276.155676,22.378783 Z M287.001719,15.1271591 L287.001719,23.8071331 L285.8559,23.8071331 L285.8559,16.2101939 L281.44528,16.2101939 L281.44528,23.8071331 L280.330853,23.8071331 L280.330853,15.1271591 L287.001719,15.1271591 Z M286.6721,28.641549 L285.165269,28.641549 C284.30198,28.641549 283.878184,28.1863605 283.878184,27.2759835 L283.878184,23.7757408 L284.976915,23.7757408 L284.976915,27.0405412 C284.976915,27.4172489 285.149573,27.6056027 285.494888,27.6056027 L286.46805,27.6056027 C286.703492,27.6056027 286.860454,27.5114258 286.954631,27.3544643 C287.0802,27.1504142 287.174377,26.5539603 287.221465,25.5807987 L288.273108,25.910418 C288.178931,27.1975027 288.006273,27.9980066 287.755135,28.2805374 C287.519692,28.5159798 287.158681,28.641549 286.6721,28.641549 Z M283.07768,17.3246209 L284.176411,17.3246209 L284.176411,20.3225866 C284.113627,22.6770099 283.705527,24.5448524 282.952111,25.9418103 C282.198696,27.2445912 280.990092,28.2648413 279.294907,28.9868644 L278.682757,27.9980066 C280.330853,27.2759835 281.476673,26.3342142 282.120215,25.1413063 C282.716669,23.9170062 283.046288,22.3003022 283.07768,20.3225866 L283.07768,17.3246209 Z M291.348899,15.111463 L302.179246,15.111463 L302.179246,21.3428367 L299.165584,21.3428367 C300.20153,22.5514407 301.818234,23.5089062 304,24.2152332 L303.513419,25.204091 C301.990892,24.6390294 300.7352,23.9640947 299.762038,23.1949831 L299.762038,28.9240798 L298.631915,28.9240798 L298.631915,23.0223254 L299.557988,23.0223254 C298.898749,22.4886561 298.380776,21.9235945 297.988372,21.3428367 L295.461291,21.3428367 C294.362561,22.8496676 292.557503,24.0896639 290.046118,25.0785217 L289.449664,24.0896639 C291.631429,23.3676408 293.248134,22.4572638 294.28408,21.3428367 L291.348899,21.3428367 L291.348899,15.111463 Z M301.096211,20.3382828 L301.096211,18.6744903 L297.282045,18.6744903 L297.282045,20.3382828 L301.096211,20.3382828 Z M296.183315,20.3382828 L296.183315,18.6744903 L292.431933,18.6744903 L292.431933,20.3382828 L296.183315,20.3382828 Z M292.431933,17.732721 L296.183315,17.732721 L296.183315,16.1160169 L292.431933,16.1160169 L292.431933,17.732721 Z M297.282045,16.1160169 L297.282045,17.732721 L301.096211,17.732721 L301.096211,16.1160169 L297.282045,16.1160169 Z M293.95446,23.0066292 L295.084584,23.0066292 C295.084584,24.2466255 294.89623,25.2982679 294.535218,26.1615564 C294.064334,27.2916796 292.981299,28.2177528 291.317506,28.939776 L290.564091,28.0293989 C291.976745,27.4486412 292.93421,26.726618 293.405095,25.8476333 C293.75041,25.0942179 293.938764,24.1524485 293.95446,23.0066292 Z"></path>
                </g>
            </g>
        </g>
    </g>
</svg>