<?xml version="1.0" encoding="UTF-8"?>
<svg width="181px" height="27px" viewBox="0 0 181 27" version="1.1" xmlns="http://www.w3.org/2000/svg" xmlns:xlink="http://www.w3.org/1999/xlink">
    <!-- Generator: Sketch 50 (54983) - http://www.bohemiancoding.com/sketch -->
    <title>Logo</title>
    <desc>Created with Sketch.</desc>
    <defs></defs>
    <g id="0_Login" stroke="none" stroke-width="1" fill="none" fill-rule="evenodd">
        <g id="1_用户名/手机号、密码登陆" transform="translate(-51.000000, -32.000000)" fill="#FFFFFF">
            <g id="Logo" transform="translate(51.000000, 31.000000)">
                <text id="管理平台" font-family="PingFang-SC-Regular, PingFang SC" font-size="24" font-weight="normal">
                    <tspan x="86" y="25">管理平台</tspan>
                </text>
                <path d="M42.0259889,11.6688348 L37.7999101,11.6688348 L37.7999101,8.16352382 C37.7999101,7.58881445 38.2729668,7.12301198 38.8564298,7.12301198 L40.9694692,7.12301198 C41.5529322,7.12301198 42.0259889,7.58881445 42.0259889,8.16352382 L42.0259889,11.6688348 Z M37.7999101,17.9183223 L42.0259889,17.9183223 L42.0259889,14.2701144 L37.7999101,14.2701144 L37.7999101,17.9183223 Z M42.0259889,23.7711147 C42.0259889,24.3458241 41.5529322,24.8117133 40.9694692,24.8117133 L38.8564298,24.8117133 C38.2729668,24.8117133 37.7999101,24.3458241 37.7999101,23.7711147 L37.7999101,20.5196019 L42.0259889,20.5196019 L42.0259889,23.7711147 Z M42.5542488,4.52173238 C44.0129503,4.52173238 45.1955481,5.68632526 45.1955481,7.12301198 L45.1955481,11.6688348 L45.1955481,14.2701144 L45.1955481,17.9183223 L45.1955481,20.5196019 L45.1955481,24.8117133 C45.1955481,26.2483133 44.0129503,27.4129929 42.5542488,27.4129929 L42.0259889,27.4129929 L37.7999101,27.4129929 L37.2716502,27.4129929 C35.8128606,27.4129929 34.6303509,26.2483133 34.6303509,24.8117133 L34.6303509,20.5196019 L34.6303509,17.9183223 L34.6303509,14.2701144 L34.6303509,11.6688348 L34.6303509,7.12301198 C34.6303509,5.68632526 35.8128606,4.52173238 37.2716502,4.52173238 L37.7999101,4.52173238 L42.0259889,4.52173238 L42.5542488,4.52173238 Z M48.632445,11.5651971 C46.8929789,11.5651971 45.8058778,9.6422599 46.6755239,8.10389236 L49.0326769,3.93477698 L52.1615257,3.93477698 L50.1057851,7.57092651 C49.7711722,8.16273605 50.1893949,8.90258673 50.8586209,8.90258673 L60.6857266,8.90258673 C61.4859296,8.90258673 62.0682432,8.12750084 61.8612177,7.33830312 L61.2470073,4.99751355 L64.3758561,4.99751355 L65.0436914,7.54261409 C65.5762041,9.5721445 64.0786154,11.5651971 62.0210497,11.5651971 L48.632445,11.5651971 Z M57.4063801,18.0679759 L57.4063801,21.9697025 L65.1520487,21.9697025 L65.1520487,24.5143068 L57.4063801,24.5143068 L57.4063801,27.9999907 L54.3209685,27.9999907 L54.3209685,24.5143068 L45.7825206,24.5143068 L45.7825206,21.9697025 L54.3209685,21.9697025 L54.3209685,18.0679759 L50.1344936,18.0679759 C49.2098986,19.1173707 47.9489937,19.8918634 46.3780907,19.8918634 L46.3780907,16.8383383 C47.9463369,16.8383383 48.8897014,14.3198585 48.8897014,13.6624176 L51.975113,13.6624176 C51.975113,14.1898293 51.8521251,14.8418417 51.6113773,15.5233716 L54.3209685,15.5233716 L54.3209685,13.3498554 L57.4063801,13.3498554 L57.4063801,15.5233716 L63.3643098,15.5233716 L63.3643098,18.0679759 L57.4063801,18.0679759 Z M26.3139319,15.4377703 C28.3009885,15.4377703 29.9118955,17.0235619 29.9118955,18.9798269 L29.9118955,23.8713748 C29.9118955,25.8273025 28.3012455,27.4130097 26.3143602,27.4130097 L19.5606293,27.4130097 L19.1040415,27.4130097 C17.5722021,27.4130097 16.2490397,26.3581767 15.9304561,24.8830296 L15.3114498,22.015803 L18.3953452,22.015803 L18.8413964,24.0815318 C18.9422226,24.5488192 19.3613754,24.8830296 19.8466606,24.8830296 L25.4571229,24.8830296 C26.2142193,24.8830296 26.8280001,24.278786 26.8280001,23.5333695 L26.8280001,19.3167359 C26.8280001,18.5716567 26.2144763,17.9677505 25.4577226,17.9677505 L14.1497635,17.9677505 L14.1497635,15.4377703 L20.2575897,15.4377703 L20.2575897,12.7391248 L23.341485,12.7391248 L23.341485,15.4377703 L26.3139319,15.4377703 Z M28.6278685,8.30832367 C28.8630951,8.67566899 29.2686671,8.89506156 29.7126904,8.89506156 L31.1086185,8.89506156 L31.1086185,11.390049 L29.7126904,11.390049 C28.3806205,11.390049 27.164075,10.7321208 26.4584804,9.6300017 L24.7852082,7.01650233 C24.5499815,6.64907384 24.1444096,6.42976445 23.700301,6.42976445 L20.1840933,6.42976445 C19.9054704,6.42976445 19.6484177,6.57738454 19.5131134,6.81490734 L18.4136271,8.74511281 C17.4228446,10.4846181 15.5400937,11.5651971 13.4999566,11.5651971 L13.4999566,9.07029284 C14.6118053,9.07029284 15.6378846,8.48139264 16.1778231,7.53338057 L17.2773094,5.6031751 C17.8634576,4.57407594 18.9773525,3.93477698 20.1840933,3.93477698 L23.700301,3.93477698 C25.0323709,3.93477698 26.2490016,4.59270518 26.9545963,5.69482431 L28.6278685,8.30832367 Z M11.972891,3.96243037 C11.972891,4.63841154 11.7093231,5.57850581 11.201769,6.44933724 L12.2801684,6.44933724 L12.2801684,9.03699006 L8.17751254,9.03699006 L8.17751254,12.2944137 L12.005236,12.2944137 L12.005236,14.8820665 L8.17751254,14.8820665 L8.17751254,18.3525402 L12.2801684,18.3525402 L12.2801684,20.9401931 L8.05197902,20.9401931 C7.60928976,23.1898122 6.07465117,24.8308153 4.75418885,25.8651002 C3.17461695,27.1021707 1.19527847,28 0.0475558755,28 L0.0475558755,24.8948166 C0.0171341022,24.8948166 0.000174837778,24.8967142 0,24.8967142 C0.725052264,24.8138231 3.87641579,23.3100518 4.78434837,20.9401931 L0.0415239722,20.9401931 L0.0415239722,18.3525402 L5.03043254,18.3525402 L5.03043254,14.8820665 L0.990456011,14.8820665 L0.990456011,12.2944137 L5.03043254,12.2944137 L5.03043254,9.03699006 L0.0415239722,9.03699006 L0.0415239722,6.44933724 L1.11992339,6.44933724 C0.612369317,5.57850581 0.348801367,4.63841154 0.348801367,3.96243037 L2.97136803,3.96243037 C2.97136803,4.40905924 3.64431864,6.19428093 4.70881845,6.19428093 L4.70881845,6.44933724 L7.61287394,6.44933724 L7.61287394,6.19428093 C8.67737375,6.19428093 9.35032435,4.40905924 9.35032435,3.96243037 L11.972891,3.96243037 Z M72.1935047,4.99194527 L71.1341324,4.99194527 L71.1341324,3.30566457 L72.1935047,3.30566457 C73.3275313,3.30566457 73.7214904,3.53270685 73.7214904,4.13583353 C73.7214904,4.73904611 73.3275313,4.99194527 72.1935047,4.99194527 M72.9676613,5.45900121 C73.9116341,5.32275866 74.4345744,4.86223137 74.4345744,4.13583353 C74.4345744,3.27972179 73.8573073,2.76086619 72.3429033,2.76086619 L70.4346301,2.76086619 L70.4346301,7.45650936 L71.1341324,7.45650936 L71.1341324,5.52377226 L71.7927997,5.52377226 C72.179923,5.52377226 72.2953224,5.56277233 72.492302,5.77031457 L74.0677787,7.45650936 L74.5433179,7.45650936 L74.5433179,7.00835213 L73.3140395,5.69892897 C73.205386,5.58862921 73.0967324,5.50435812 72.9676613,5.45900121 M72.1954963,8.87945878 C70.1163158,8.87945878 68.4247218,7.18793191 68.4247218,5.10864554 C68.4247218,3.02944365 70.1163158,1.33791677 72.1954963,1.33791677 C74.2747613,1.33791677 75.9662708,3.02944365 75.9662708,5.10864554 C75.9662708,7.18793191 74.2747613,8.87945878 72.1954963,8.87945878 M72.1954963,1 C69.9299566,1 68.0868085,2.84308255 68.0868085,5.10864554 C68.0868085,7.37420853 69.9299566,9.21737555 72.1954963,9.21737555 C74.461036,9.21737555 76.3041841,7.37420853 76.3041841,5.10864554 C76.3041841,2.84308255 74.461036,1 72.1954963,1"></path>
            </g>
        </g>
    </g>
</svg>